<mxfile host="app.diagrams.net" modified="2021-09-06T16:10:19.889Z" agent="5.0 (Windows NT 10.0; Win64; x64) AppleWebKit/537.36 (KHTML, like Gecko) Chrome/93.0.4577.63 Safari/537.36" etag="wKSaKCSs_aiwjNnR2IcL" version="15.0.6" type="github">
  <diagram id="C5RBs43oDa-KdzZeNtuy" name="Page-1">
    <mxGraphModel dx="868" dy="482" grid="1" gridSize="10" guides="1" tooltips="1" connect="1" arrows="1" fold="1" page="1" pageScale="1" pageWidth="827" pageHeight="1169" math="0" shadow="0">
      <root>
        <mxCell id="WIyWlLk6GJQsqaUBKTNV-0" />
        <mxCell id="WIyWlLk6GJQsqaUBKTNV-1" parent="WIyWlLk6GJQsqaUBKTNV-0" />
        <mxCell id="WIyWlLk6GJQsqaUBKTNV-2" value="" style="rounded=0;html=1;jettySize=auto;orthogonalLoop=1;fontSize=11;endArrow=block;endFill=0;endSize=8;strokeWidth=1;shadow=0;labelBackgroundColor=none;edgeStyle=orthogonalEdgeStyle;entryX=0.5;entryY=0;entryDx=0;entryDy=0;" parent="WIyWlLk6GJQsqaUBKTNV-1" source="WIyWlLk6GJQsqaUBKTNV-3" target="JigtjAPMeTJQKbHJ6mod-0" edge="1">
          <mxGeometry relative="1" as="geometry">
            <mxPoint x="110" y="280" as="targetPoint" />
            <Array as="points" />
          </mxGeometry>
        </mxCell>
        <mxCell id="WIyWlLk6GJQsqaUBKTNV-3" value="Heat oven to 180 degrees Celsius" style="rounded=1;whiteSpace=wrap;html=1;fontSize=12;glass=0;strokeWidth=1;shadow=0;" parent="WIyWlLk6GJQsqaUBKTNV-1" vertex="1">
          <mxGeometry x="160" y="80" width="120" height="40" as="geometry" />
        </mxCell>
        <mxCell id="JigtjAPMeTJQKbHJ6mod-0" value="&#xa;&#xa;&lt;span style=&quot;color: rgb(51, 51, 51); font-size: 12px; font-style: normal; font-weight: 400; letter-spacing: normal; text-align: left; text-indent: 0px; text-transform: none; word-spacing: 0px; background-color: rgb(255, 255, 255); display: inline; float: none;&quot;&gt;Put the egg whites and sugar in a stand mixer and begin to beat on a low speed for a few mins, turn the mixer up and wait another couple of mins before adding the lemon juice, vanilla and a pinch of salt.&lt;/span&gt;&#xa;&#xa;" style="rounded=1;whiteSpace=wrap;html=1;fontSize=12;" vertex="1" parent="WIyWlLk6GJQsqaUBKTNV-1">
          <mxGeometry x="160" y="150" width="120" height="160" as="geometry" />
        </mxCell>
        <mxCell id="JigtjAPMeTJQKbHJ6mod-1" value="&#xa;&#xa;&lt;span style=&quot;color: rgb(51, 51, 51); font-size: 12px; font-style: normal; font-weight: 400; letter-spacing: normal; text-align: left; text-indent: 0px; text-transform: none; word-spacing: 0px; background-color: rgb(255, 255, 255); display: inline; float: none;&quot;&gt;Turn the mixer up again and whisk on high until you have a thick, soft, shiny meringue with a peak that flops over.&lt;/span&gt;&#xa;&#xa;" style="rounded=1;whiteSpace=wrap;html=1;fontSize=12;" vertex="1" parent="WIyWlLk6GJQsqaUBKTNV-1">
          <mxGeometry x="160" y="340" width="120" height="90" as="geometry" />
        </mxCell>
        <mxCell id="JigtjAPMeTJQKbHJ6mod-2" value="" style="endArrow=classic;html=1;fontSize=12;exitX=0.5;exitY=1;exitDx=0;exitDy=0;entryX=0.5;entryY=0;entryDx=0;entryDy=0;" edge="1" parent="WIyWlLk6GJQsqaUBKTNV-1" source="JigtjAPMeTJQKbHJ6mod-0" target="JigtjAPMeTJQKbHJ6mod-1">
          <mxGeometry width="50" height="50" relative="1" as="geometry">
            <mxPoint x="220" y="360" as="sourcePoint" />
            <mxPoint x="270" y="310" as="targetPoint" />
            <Array as="points">
              <mxPoint x="220" y="330" />
            </Array>
          </mxGeometry>
        </mxCell>
        <mxCell id="JigtjAPMeTJQKbHJ6mod-3" value="" style="endArrow=classic;html=1;fontSize=12;" edge="1" parent="WIyWlLk6GJQsqaUBKTNV-1" source="JigtjAPMeTJQKbHJ6mod-1">
          <mxGeometry width="50" height="50" relative="1" as="geometry">
            <mxPoint x="280" y="435" as="sourcePoint" />
            <mxPoint x="350.71067811865476" y="385" as="targetPoint" />
          </mxGeometry>
        </mxCell>
        <mxCell id="JigtjAPMeTJQKbHJ6mod-6" value="" style="edgeStyle=orthogonalEdgeStyle;rounded=0;orthogonalLoop=1;jettySize=auto;html=1;fontSize=12;" edge="1" parent="WIyWlLk6GJQsqaUBKTNV-1" source="JigtjAPMeTJQKbHJ6mod-4" target="JigtjAPMeTJQKbHJ6mod-5">
          <mxGeometry relative="1" as="geometry" />
        </mxCell>
        <mxCell id="JigtjAPMeTJQKbHJ6mod-4" value="&#xa;&#xa;&lt;span style=&quot;color: rgb(51, 51, 51); font-size: 12px; font-style: normal; font-weight: 400; letter-spacing: normal; text-align: left; text-indent: 0px; text-transform: none; word-spacing: 0px; background-color: rgb(255, 255, 255); display: inline; float: none;&quot;&gt;Fold in the flour with a&lt;span style=&quot;font-size: 12px;&quot;&gt;&amp;nbsp;&lt;/span&gt;&lt;/span&gt;&lt;a href=&quot;https://www.bbcgoodfood.com/content/test-best-spatulas&quot; style=&quot;box-sizing: inherit; background-color: rgb(255, 255, 255); color: rgb(190, 42, 119); text-decoration: underline; font-weight: 400; cursor: pointer; transition: all 0.1s linear 0s; font-size: 12px; font-style: normal; letter-spacing: normal; text-align: left; text-indent: 0px; text-transform: none; word-spacing: 0px;&quot;&gt;spatula&lt;/a&gt;&lt;span style=&quot;color: rgb(51, 51, 51); font-size: 12px; font-style: normal; font-weight: 400; letter-spacing: normal; text-align: left; text-indent: 0px; text-transform: none; word-spacing: 0px; background-color: rgb(255, 255, 255); display: inline; float: none;&quot;&gt;&lt;span style=&quot;font-size: 12px;&quot;&gt;&amp;nbsp;&lt;/span&gt;until there are no lumps left, then scrape the mixture into a 25cm angel cake tin. Bake for 40-45 mins or until the cake is puffed and lightly browned and a skewer comes out clean. Turn the tin upside down – if it doesn’t have its own legs, then invert it onto four water glasses or tins of food exactly the same size. Leave to cool completely.&lt;/span&gt;&#xa;&#xa;" style="rounded=1;whiteSpace=wrap;html=1;fontSize=12;" vertex="1" parent="WIyWlLk6GJQsqaUBKTNV-1">
          <mxGeometry x="354" y="220" width="126" height="240" as="geometry" />
        </mxCell>
        <mxCell id="JigtjAPMeTJQKbHJ6mod-8" value="" style="edgeStyle=orthogonalEdgeStyle;rounded=0;orthogonalLoop=1;jettySize=auto;html=1;fontSize=12;" edge="1" parent="WIyWlLk6GJQsqaUBKTNV-1" source="JigtjAPMeTJQKbHJ6mod-5" target="JigtjAPMeTJQKbHJ6mod-7">
          <mxGeometry relative="1" as="geometry" />
        </mxCell>
        <mxCell id="JigtjAPMeTJQKbHJ6mod-5" value="&#xa;&#xa;&lt;span style=&quot;color: rgb(51, 51, 51); font-size: 12px; font-style: normal; font-weight: 400; letter-spacing: normal; text-align: left; text-indent: 0px; text-transform: none; word-spacing: 0px; background-color: rgb(255, 255, 255); display: inline; float: none;&quot;&gt;Run a palette knife around the tin to loosen the cake and gently let it drop out, then set aside on a board or cake stand.&lt;/span&gt;&#xa;&#xa;" style="whiteSpace=wrap;html=1;rounded=1;fontSize=12;" vertex="1" parent="WIyWlLk6GJQsqaUBKTNV-1">
          <mxGeometry x="563" y="270" width="137" height="140" as="geometry" />
        </mxCell>
        <mxCell id="JigtjAPMeTJQKbHJ6mod-10" value="" style="edgeStyle=orthogonalEdgeStyle;rounded=0;orthogonalLoop=1;jettySize=auto;html=1;fontSize=12;" edge="1" parent="WIyWlLk6GJQsqaUBKTNV-1" source="JigtjAPMeTJQKbHJ6mod-7" target="JigtjAPMeTJQKbHJ6mod-9">
          <mxGeometry relative="1" as="geometry" />
        </mxCell>
        <mxCell id="JigtjAPMeTJQKbHJ6mod-7" value="&lt;span style=&quot;color: rgb(51 , 51 , 51) ; font-family: , &amp;#34;helvetica neue&amp;#34; , &amp;#34;helvetica&amp;#34; , &amp;#34;arial&amp;#34; , sans-serif ; text-align: left ; background-color: rgb(255 , 255 , 255)&quot;&gt;To make the meringue icing, put the egg whites, sugar, vanilla, pinch of cream of tartar and 100ml water in a large heatproof bowl set over a pan of simmering water and beat it on high speed with an electric whisk for 15 mins or until thick and shiny and standing up in stiff peaks. Ice the cake straight away as the icing will stiffen as it sets. Spread over using a palette knife or use a piping bag to pipe on swirls.&lt;/span&gt;" style="whiteSpace=wrap;html=1;rounded=1;fontSize=12;" vertex="1" parent="WIyWlLk6GJQsqaUBKTNV-1">
          <mxGeometry x="563" y="440" width="137" height="270" as="geometry" />
        </mxCell>
        <mxCell id="JigtjAPMeTJQKbHJ6mod-12" value="" style="edgeStyle=orthogonalEdgeStyle;rounded=0;orthogonalLoop=1;jettySize=auto;html=1;fontSize=12;" edge="1" parent="WIyWlLk6GJQsqaUBKTNV-1" source="JigtjAPMeTJQKbHJ6mod-9" target="JigtjAPMeTJQKbHJ6mod-11">
          <mxGeometry relative="1" as="geometry" />
        </mxCell>
        <mxCell id="JigtjAPMeTJQKbHJ6mod-9" value="&#xa;&#xa;&lt;span style=&quot;color: rgb(51, 51, 51); font-size: 12px; font-style: normal; font-weight: 400; letter-spacing: normal; text-align: left; text-indent: 0px; text-transform: none; word-spacing: 0px; background-color: rgb(255, 255, 255); display: inline; float: none;&quot;&gt;Put the iced cake in the fridge while you make the strawberry ganache. Put the white chocolate in a small heatproof bowl and set aside. Put the cream and strawberries in a&lt;span style=&quot;font-size: 12px;&quot;&gt;&amp;nbsp;&lt;/span&gt;&lt;/span&gt;&lt;a href=&quot;https://www.bbcgoodfood.com/content/five-best-saucepans&quot; style=&quot;box-sizing: inherit; background-color: rgb(255, 255, 255); color: rgb(190, 42, 119); text-decoration: underline; font-weight: 400; cursor: pointer; transition: all 0.1s linear 0s; font-size: 12px; font-style: normal; letter-spacing: normal; text-align: left; text-indent: 0px; text-transform: none; word-spacing: 0px;&quot;&gt;saucepan&lt;/a&gt;&lt;span style=&quot;color: rgb(51, 51, 51); font-size: 12px; font-style: normal; font-weight: 400; letter-spacing: normal; text-align: left; text-indent: 0px; text-transform: none; word-spacing: 0px; background-color: rgb(255, 255, 255); display: inline; float: none;&quot;&gt;&lt;span style=&quot;font-size: 12px;&quot;&gt;&amp;nbsp;&lt;/span&gt;over a medium heat and cook, stirring all the time, until the strawberries have broken down and the cream starts to simmer. Quickly pour the hot cream mixture over the white chocolate and leave it, without stirring, for 1 min, then add the food colouring and mix until smooth.&lt;/span&gt;&#xa;&#xa;" style="whiteSpace=wrap;html=1;rounded=1;fontSize=12;" vertex="1" parent="WIyWlLk6GJQsqaUBKTNV-1">
          <mxGeometry x="571.5" y="770" width="118.5" height="350" as="geometry" />
        </mxCell>
        <mxCell id="JigtjAPMeTJQKbHJ6mod-11" value="&#xa;&#xa;&lt;span style=&quot;color: rgb(51, 51, 51); font-size: 12px; font-style: normal; font-weight: 400; letter-spacing: normal; text-align: left; text-indent: 0px; text-transform: none; word-spacing: 0px; background-color: rgb(255, 255, 255); display: inline; float: none;&quot;&gt;Push through a sieve into a jug (to get rid of the strawberry seeds) then, while it’s still runny, pour it over the top of the cake and let it drizzle down the sides. Put the cake back in the fridge for 10-20 mins to set. Just before serving (particularly if it’s a hot day), top with the strawberries and your choice of decorations.&lt;/span&gt;&#xa;&#xa;" style="whiteSpace=wrap;html=1;rounded=1;fontSize=12;" vertex="1" parent="WIyWlLk6GJQsqaUBKTNV-1">
          <mxGeometry x="372.25" y="830" width="120" height="230" as="geometry" />
        </mxCell>
      </root>
    </mxGraphModel>
  </diagram>
</mxfile>
